<svg width="212" height="61" viewBox="0 0 212 61" fill="none" xmlns="http://www.w3.org/2000/svg">
<g clip-path="url(#clip0_6_109)">
<path d="M14.273 34.8714L21.6499 26.041L30.452 33.4625L34.7415 28.3221L20.8225 16.5831L9.15306 30.5575L14.273 34.8714Z" fill="white"/>
<path d="M1.82867 39.3257L6.11989 34.1869L11.2383 38.5025L6.94704 43.6413L1.82867 39.3257Z" fill="white"/>
<path d="M14.8573 41.5501L23.6558 48.9686L31.0354 40.1313L36.1551 44.4419L36.1521 44.4455L24.483 58.4232L10.5645 46.6908L10.5574 46.6848L14.8573 41.5501Z" fill="white"/>
<path d="M34.0593 36.5071L38.3505 31.3682L43.4688 35.6839L39.1776 40.8227L34.0593 36.5071Z" fill="white"/>
<path d="M27.4249 37.084L22.2328 32.7031L19.014 36.5578L18.6417 36.9999L17.8797 37.9124L17.8737 37.9196L17.8812 37.9289L23.0727 42.3032L27.4252 37.0873L27.4282 37.0837L27.4249 37.084Z" fill="white"/>
<path d="M49.8661 24.2583L60.1014 23.3629C62.6405 23.1407 64.6191 23.6336 66.0372 24.8415C66.5706 25.2869 67.0084 25.8364 67.3242 26.4568C67.64 27.0771 67.8271 27.7553 67.8741 28.4503L67.8796 28.5131C67.9381 29.0807 67.9089 29.6538 67.7929 30.2123C67.6882 30.6935 67.5156 31.1571 67.2804 31.5891C67.0615 31.9963 66.7862 32.3701 66.4628 32.6996C66.1472 33.0248 65.7954 33.3126 65.4144 33.5572C66.6013 33.8595 67.6964 34.4497 68.6038 35.2761C69.4094 36.0492 69.8768 37.1738 70.0059 38.6499L70.0114 38.7127C70.1129 39.6327 69.9931 40.5636 69.6623 41.4272C69.3382 42.2245 68.8226 42.9286 68.1613 43.4765C67.4125 44.0821 66.5604 44.5459 65.6463 44.8454C64.5608 45.2065 63.4355 45.4336 62.2952 45.5215L51.8067 46.4392L49.8661 24.2583ZM59.8599 32.4215C60.7492 32.387 61.6137 32.1184 62.3669 31.6427C62.6587 31.4353 62.8868 31.1498 63.0253 30.8187C63.1639 30.4876 63.2073 30.1241 63.1508 29.7693L63.1453 29.7065C63.1328 29.3761 63.0377 29.0542 62.8686 28.7704C62.6995 28.4866 62.462 28.2501 62.1781 28.0829C61.598 27.7407 60.7927 27.6147 59.7621 27.7048L54.9734 28.1238L55.3836 32.8131L59.8599 32.4215ZM61.9346 41.2475C62.8211 41.2199 63.6816 40.9403 64.4159 40.441C64.6997 40.2205 64.9194 39.9275 65.0521 39.5926C65.1849 39.2577 65.2258 38.8931 65.1706 38.5368L65.1651 38.474C65.1472 38.1323 65.0461 37.8002 64.8708 37.5067C64.6955 37.2131 64.4512 36.9672 64.1595 36.7905C63.5552 36.3993 62.6216 36.259 61.3587 36.3695L55.7378 36.8613L56.1657 41.7522L61.9346 41.2475Z" fill="white"/>
<path d="M74.7011 22.0856L79.5589 21.6606L81.5001 43.848L76.6423 44.273L74.7011 22.0856Z" fill="white"/>
<path d="M86.9098 21.0174L91.3894 20.6255L102.938 33.3745L101.743 19.7197L106.538 19.3002L108.479 41.4876L104.345 41.8493L92.4189 28.6805L93.6528 42.7847L88.8509 43.2049L86.9098 21.0174Z" fill="white"/>
<path d="M121.233 17.8547L125.706 17.4634L137.123 38.9816L132.051 39.4253L129.597 34.6252L120.259 35.4421L118.675 40.5956L113.722 41.0289L121.233 17.8547ZM127.486 30.4676L123.916 23.5273L121.619 30.9809L127.486 30.4676Z" fill="white"/>
<path d="M140.434 16.3346L144.914 15.9427L156.456 28.6923L155.261 15.0375L160.056 14.6179L161.998 36.8054L157.863 37.1671L145.937 23.9983L147.171 38.1025L142.376 38.5221L140.434 16.3346Z" fill="white"/>
<path d="M179.516 35.6656C177.969 35.8144 176.408 35.6474 174.926 35.1748C173.531 34.7342 172.238 34.0178 171.123 33.0676C170.008 32.1174 169.094 30.9528 168.433 29.6424C167.738 28.272 167.315 26.7784 167.19 25.2457L167.185 25.1829C166.895 22.1654 167.797 19.1554 169.696 16.8015C170.631 15.651 171.788 14.7026 173.098 14.0131C174.522 13.2683 176.083 12.8224 177.686 12.7026C178.632 12.6127 179.584 12.6152 180.53 12.7102C181.339 12.7918 182.138 12.9574 182.913 13.2043C183.617 13.432 184.294 13.7368 184.931 14.1133C185.553 14.4805 186.144 14.8988 186.698 15.364L183.923 19.2164C183.07 18.5539 182.13 18.0121 181.131 17.6059C180.151 17.2366 179.1 17.1006 178.06 17.2086C177.192 17.2751 176.349 17.5264 175.586 17.9457C174.822 18.365 174.157 18.9427 173.633 19.6405C173.114 20.3362 172.729 21.1231 172.497 21.9609C172.255 22.8461 172.175 23.7681 172.261 24.6822L172.267 24.7449C172.344 25.6585 172.582 26.551 172.971 27.3806C173.341 28.1687 173.853 28.8814 174.481 29.4829C175.114 30.0876 175.869 30.5486 176.694 30.8349C177.52 31.1212 178.397 31.2259 179.266 31.1421C180.376 31.0803 181.455 30.7447 182.405 30.1649C183.306 29.5641 184.124 28.8477 184.84 28.0338L188.206 30.9027C187.713 31.5458 187.17 32.1498 186.585 32.7096C186.009 33.2553 185.374 33.7342 184.691 34.1373C183.964 34.5627 183.187 34.8978 182.379 35.1354C181.445 35.4101 180.486 35.5877 179.516 35.6656Z" fill="white"/>
<path d="M192.311 11.796L208.93 10.342L209.31 14.6843L197.47 15.7202L197.864 20.2211L208.29 19.309L208.67 23.6513L198.26 24.562L198.668 29.2216L210.656 28.1727L211.036 32.515L194.262 33.9826L192.311 11.796Z" fill="white"/>
</g>
<defs>
<clipPath id="clip0_6_109">
<rect width="209" height="42" fill="white" transform="translate(0 18.4048) rotate(-5)"/>
</clipPath>
</defs>
</svg>
