<svg width="54" height="55" viewBox="0 0 54 55" fill="none" xmlns="http://www.w3.org/2000/svg">
<g clip-path="url(#clip0_6_212)">
<path d="M27 54.4048C41.9117 54.4048 54 42.3165 54 27.4048C54 12.4931 41.9117 0.404785 27 0.404785C12.0883 0.404785 0 12.4931 0 27.4048C0 42.3165 12.0883 54.4048 27 54.4048Z" fill="white"/>
<path d="M13.3207 28.312L13.4374 28.1289L20.4606 17.141C20.484 17.1046 20.5167 17.0752 20.5554 17.0559C20.594 17.0365 20.6372 17.028 20.6804 17.0311C20.7235 17.0343 20.765 17.049 20.8004 17.0738C20.8359 17.0985 20.864 17.1324 20.8818 17.1718C22.0552 19.8016 23.0677 23.0718 22.5936 25.1082C22.3911 25.9457 21.8365 27.0802 21.2123 28.1289C21.1313 28.2817 21.0427 28.4313 20.9488 28.5755C20.9267 28.6082 20.897 28.6349 20.8621 28.6533C20.8272 28.6717 20.7884 28.6811 20.749 28.6808H13.5259C13.3315 28.6808 13.2181 28.4702 13.3207 28.312Z" fill="#2001FF"/>
<path d="M44.6278 30.3537V32.0925C44.6278 32.193 44.5667 32.2815 44.4782 32.3204C43.9344 32.5537 42.073 33.408 41.2992 34.4842C39.3239 37.2328 37.8151 41.164 34.4417 41.164H20.3693C15.3819 41.164 11.34 37.1086 11.34 32.1039V31.9435C11.34 31.8101 11.448 31.7021 11.5814 31.7021H19.4265C19.5815 31.7021 19.6954 31.8463 19.6814 31.9991C19.6261 32.5177 19.7236 33.0412 19.9616 33.5052C20.1897 33.9666 20.5423 34.355 20.9795 34.6266C21.4168 34.8981 21.9212 35.042 22.4359 35.042H26.3196V32.0099H22.4802C22.4353 32.0094 22.3913 31.9966 22.3531 31.9729C22.3149 31.9493 22.2838 31.9156 22.2633 31.8757C22.2427 31.8357 22.2335 31.7908 22.2365 31.746C22.2395 31.7012 22.2547 31.658 22.2804 31.6211C22.3225 31.5574 22.3695 31.4915 22.4192 31.4159C22.9201 30.6949 23.3868 29.9506 23.8178 29.1857C24.1699 28.5701 24.5111 27.9124 24.7855 27.2525C24.8411 27.1332 24.8854 27.0111 24.9296 26.8918C25.0047 26.6812 25.0825 26.4841 25.1381 26.287C25.1932 26.1207 25.238 25.9457 25.2823 25.7821C25.4124 25.2216 25.468 24.6281 25.468 24.0125C25.468 23.7711 25.4572 23.5184 25.4345 23.277C25.4237 23.0135 25.3903 22.75 25.3568 22.4865C25.331 22.2501 25.295 22.015 25.2488 21.7818C25.191 21.4272 25.1171 21.0755 25.0274 20.7277L24.9966 20.5948C24.9296 20.3535 24.8746 20.1234 24.7968 19.882C24.5821 19.1432 24.3358 18.4139 24.0586 17.6961C23.9614 17.4213 23.8507 17.1577 23.74 16.8942C23.5764 16.4973 23.4095 16.1371 23.2573 15.7959C23.1795 15.6403 23.1131 15.4989 23.0467 15.3547C22.9726 15.1925 22.8957 15.0315 22.8161 14.8719C22.7605 14.7531 22.6967 14.6419 22.6525 14.5306L22.1778 13.6542C22.1629 13.6277 22.1562 13.5974 22.1585 13.5671C22.1608 13.5367 22.172 13.5078 22.1907 13.4838C22.2093 13.4598 22.2347 13.4419 22.2635 13.4322C22.2924 13.4226 22.3234 13.4217 22.3528 13.4296L25.3211 14.2342H25.3292C25.3346 14.2342 25.3379 14.2369 25.34 14.2369L25.7315 14.3449L26.1614 14.4669L26.3196 14.5112V12.747C26.3196 11.8954 27.0022 11.2048 27.8451 11.2048C28.2668 11.2048 28.6497 11.3765 28.9246 11.6568C29.1989 11.9376 29.3711 12.3199 29.3711 12.7476V15.366L29.687 15.4546C29.7129 15.4627 29.7374 15.4749 29.7594 15.4908C29.8372 15.5491 29.9484 15.6349 30.0893 15.7402C30.2006 15.8288 30.3199 15.9373 30.4641 16.048C30.7498 16.2786 31.0905 16.5751 31.4653 16.9164C31.5652 17.0028 31.6624 17.0913 31.7515 17.1799C32.2891 17.6747 32.8027 18.1949 33.2905 18.7389C33.4352 18.9025 33.5767 19.0688 33.7208 19.2438C33.865 19.4214 34.0178 19.5958 34.1507 19.7708C34.3256 20.0041 34.5141 20.2455 34.6777 20.4976C34.7555 20.617 34.844 20.739 34.9191 20.8584C35.1297 21.177 35.3155 21.5074 35.4931 21.8374C35.5682 21.9902 35.6459 22.1565 35.7124 22.3201C35.9095 22.7613 36.0644 23.2111 36.1643 23.6599C36.1951 23.7571 36.2173 23.8624 36.2281 23.9569V23.979C36.2615 24.1124 36.2729 24.2539 36.2837 24.3981C36.3297 24.8606 36.3035 25.3276 36.2059 25.7821C36.163 25.9785 36.1083 26.1722 36.0423 26.362C35.9759 26.551 35.9095 26.7476 35.8231 26.9334C35.6559 27.3264 35.4565 27.705 35.2269 28.0652C35.1518 28.198 35.0633 28.3395 34.9742 28.4729C34.877 28.6144 34.7776 28.7478 34.6885 28.8779C34.5665 29.0442 34.4363 29.2192 34.303 29.3747C34.1842 29.5383 34.0616 29.7019 33.9287 29.8461C33.7505 30.0591 33.5674 30.268 33.3796 30.4725C33.2683 30.6032 33.149 30.7366 33.0269 30.8559C32.9081 30.9888 32.7856 31.1081 32.6749 31.2193C32.4891 31.4051 32.3336 31.5493 32.2034 31.6686L31.8983 31.9489C31.853 31.9883 31.7948 32.01 31.7347 32.0099H29.3706V35.042H32.3444C33.0077 35.0417 33.649 34.8044 34.1528 34.3729C34.3278 34.2207 35.0903 33.5602 35.9921 32.5645C36.0223 32.5308 36.0617 32.5068 36.1055 32.4954L44.3194 30.1204C44.3554 30.1104 44.3933 30.1088 44.43 30.1157C44.4668 30.1227 44.5014 30.1381 44.5312 30.1607C44.561 30.1833 44.5852 30.2125 44.6018 30.246C44.6185 30.2794 44.6277 30.3163 44.6278 30.3537Z" fill="#2001FF"/>
</g>
<defs>
<clipPath id="clip0_6_212">
<rect width="54" height="54" fill="white" transform="translate(0 0.404785)"/>
</clipPath>
</defs>
</svg>
