<svg width="199" height="44" viewBox="0 0 199 44" fill="none" xmlns="http://www.w3.org/2000/svg">
<path d="M39.6618 15.6634C32.4963 16.2903 27.3679 22.1578 27.9978 29.3569C28.6276 36.556 34.5515 41.4102 41.8584 40.7709C49.1654 40.1316 54.2431 34.2222 53.6173 27.0691C52.9955 19.962 47.0636 15.0158 39.6618 15.6634ZM41.4529 35.5784C37.3723 35.9354 34.1081 33.0639 33.74 28.8563C33.3677 24.6009 36.0355 21.2122 40.116 20.8552C44.2449 20.4939 47.5113 23.4116 47.8794 27.6192C48.2476 31.8268 45.5334 35.2214 41.4529 35.5784ZM54.5646 19.8729L58.1241 19.5615L59.8013 38.732L65.495 38.2338L63.38 14.0592L54.1268 14.8687L54.5646 19.8729ZM13.0223 23.2238C16.0124 22.9622 18.5443 24.5778 19.6822 27.2109L25.7089 26.6836C24.1096 20.982 18.9262 17.4775 12.6166 18.0295C5.45107 18.6564 0.322723 24.5239 0.952719 31.7248C1.58271 38.9257 7.5064 43.7781 14.8134 43.1388C20.9816 42.5992 25.5725 38.2395 26.1533 32.299L20.1731 32.8222C19.5563 35.6088 17.3476 37.6873 14.3575 37.9489C10.2286 38.3102 7.06112 35.4302 6.693 31.2226C6.32249 26.967 8.89524 23.5848 13.0223 23.2238ZM163.166 15.1767L158.938 14.9349C156.92 14.8295 155.44 14.2991 155.305 12.7556C155.157 11.0722 156.935 10.0694 159.449 9.84944C162.201 9.60868 164.06 10.6233 164.607 12.5071L170.111 12.0256C169.068 7.2171 165.022 4.69751 159.187 5.20802C153.161 5.73529 149.441 9.1233 149.817 13.4247C150.177 17.5385 152.996 19.6962 158.328 19.9825L162.556 20.2244C164.622 20.3255 165.83 21.0224 165.961 22.5182C166.129 24.4352 164.205 25.4044 161.453 25.6451C158.084 25.9399 156.067 24.7501 155.603 22.7181L150.004 23.2079C150.94 27.8849 154.978 30.876 161.81 30.2783C168.027 29.7344 171.908 26.5677 171.487 21.7511C171.11 17.4497 167.926 15.4666 163.166 15.1767ZM59.6619 4.3495C57.5742 4.53215 56.1383 6.16498 56.3183 8.22187C56.4983 10.2788 58.194 11.6376 60.2835 11.4548C62.3712 11.2722 63.807 9.63933 63.627 7.58244C63.4471 5.52554 61.7496 4.16685 59.6619 4.3495ZM144.815 15.275C144.357 10.0389 140.824 6.81459 133.992 7.41236C127.539 7.97691 124.215 11.5193 123.936 16.5381L129.583 16.044C129.7 14.102 131.079 12.3796 134.306 12.0973C137.201 11.844 138.735 12.9816 138.87 14.5252C139.046 16.536 136.48 17.2778 133.283 17.8875C128.958 18.7367 123.68 20.7057 124.171 26.317C124.551 30.6662 128.072 33.1836 133.291 32.727C137.371 32.37 139.786 30.4624 140.835 27.6845C141.233 30.0522 143.171 31.438 145.687 31.2179L149.008 30.9274L148.571 25.925L145.77 26.17L144.817 15.2748L144.815 15.275ZM139.748 21.8434C140.031 25.0704 137.393 27.7038 133.928 28.0069C131.792 28.1938 129.911 27.463 129.748 25.5937C129.539 23.2093 132.377 22.3011 135.009 21.7889C137.551 21.3311 138.926 20.6455 139.544 19.5069L139.748 21.8434ZM108.226 9.66473C105.047 9.94294 102.504 11.4853 100.798 13.8481L99.6408 0.616354L93.947 1.11449L96.9538 35.4816L102.553 34.9917L102.274 31.8126C104.373 33.9371 107.197 35.0563 110.423 34.774C117.256 34.1763 121.962 28.3938 121.332 21.193C120.702 13.9921 114.964 9.07527 108.226 9.66473ZM109.115 29.6587C105.035 30.0157 101.77 27.1442 101.402 22.9366C101.034 18.729 103.793 15.2842 107.873 14.9272C112.002 14.5659 115.17 17.4459 115.542 21.6996C115.91 25.9072 113.196 29.3017 109.115 29.6587ZM81.1795 12.031C77.4785 12.3548 75.1887 14.0624 73.9494 16.2916L73.6753 13.1585L68.0281 13.6525L70.1429 37.8254L75.8367 37.3273L74.6873 24.1894C74.3641 20.4951 76.5074 17.6695 80.0185 17.3624C83.2933 17.0758 85.5331 19.188 85.8236 22.5087L87.0345 36.3494L92.7282 35.8512L91.4806 21.5911C90.9505 15.5105 87.396 11.4872 81.1795 12.031ZM198.13 13.6732C197.524 6.75373 191.975 2.33951 185.094 2.9415C177.787 3.58077 172.899 9.47361 173.525 16.6267C174.183 24.1551 180.363 28.6551 187.385 28.0407C193.317 27.5217 197.664 23.6543 198.42 18.6421L192.488 19.161C191.822 21.3865 189.841 22.7852 187.041 23.0302C183.386 23.3499 180.438 21.3461 179.478 17.4721L198.316 15.824L198.128 13.6733L198.13 13.6732ZM179.46 13.4212C180.067 9.9755 182.487 8.11574 185.428 7.85837C188.655 7.57609 191.282 9.18347 192.129 12.3128L179.46 13.4212Z" fill="white"/>
</svg>
