<svg width="24" height="22" viewBox="0 0 24 22" fill="none" xmlns="http://www.w3.org/2000/svg">
<path d="M12 21.2815C11.8886 21.2797 11.7794 21.2496 11.6828 21.194C11.5625 21.1393 8.85 19.5971 6.09375 17.1252C2.32031 13.7237 0.406252 10.344 0.406252 7.06274C0.40526 5.70516 0.83981 4.38306 1.64603 3.2908C2.45224 2.19853 3.58759 1.39371 4.8852 0.994635C6.1828 0.595562 7.5742 0.623287 8.85487 1.07374C10.1355 1.52419 11.2379 2.3736 12 3.49712C12.7621 2.3736 13.8645 1.52419 15.1451 1.07374C16.4258 0.623287 17.8172 0.595562 19.1148 0.994635C20.4124 1.39371 21.5478 2.19853 22.354 3.2908C23.1602 4.38306 23.5947 5.70516 23.5938 7.06274C23.5938 10.344 21.6797 13.7237 17.9063 17.1252C15.15 19.5971 12.4375 21.1393 12.3172 21.194C12.2206 21.2496 12.1114 21.2797 12 21.2815ZM6.75 2.03149C5.41563 2.03149 4.13591 2.56157 3.19237 3.50511C2.24883 4.44865 1.71875 5.72837 1.71875 7.06274C1.71875 13.3299 10.2281 18.7987 12 19.8596C13.7719 18.7987 22.2813 13.3299 22.2813 7.06274C22.2838 5.89775 21.882 4.76798 21.1444 3.86624C20.4068 2.9645 19.3791 2.34667 18.2367 2.1182C17.0944 1.88972 15.9081 2.06477 14.8804 2.61345C13.8527 3.16213 13.0473 4.05045 12.6016 5.1268C12.5545 5.24807 12.4718 5.35228 12.3645 5.42576C12.2571 5.49924 12.1301 5.53855 12 5.53855C11.8699 5.53855 11.7429 5.49924 11.6355 5.42576C11.5282 5.35228 11.4455 5.24807 11.3984 5.1268C11.016 4.20941 10.3704 3.42585 9.54312 2.87497C8.71583 2.32409 7.74392 2.03059 6.75 2.03149Z" fill="#D03E3E"/>
</svg>
