<svg width="83" height="82" viewBox="0 0 83 82" fill="none" xmlns="http://www.w3.org/2000/svg">
<path d="M41.5 7.38769C52.4473 7.38769 53.7439 7.42933 58.0672 7.62632C62.0647 7.8089 64.2358 8.47675 65.6807 9.03826C67.5943 9.78202 68.9601 10.6706 70.3947 12.1053C71.8298 13.5399 72.718 14.9057 73.4617 16.8193C74.0233 18.2642 74.6911 20.4353 74.8737 24.4325C75.0707 28.7561 75.1123 30.0527 75.1123 41C75.1123 51.9476 75.0707 53.2443 74.8737 57.5675C74.6911 61.565 74.0233 63.7358 73.4617 65.1807C72.718 67.0943 71.8294 68.4604 70.3947 69.8951C68.9601 71.3298 67.5943 72.2183 65.6807 72.9617C64.2358 73.5233 62.0647 74.1914 58.0672 74.3737C53.7446 74.571 52.448 74.6126 41.5 74.6126C30.5517 74.6126 29.2551 74.571 24.9325 74.3737C20.935 74.1911 18.7642 73.5233 17.3193 72.9617C15.4057 72.2183 14.0396 71.3298 12.6049 69.8951C11.1702 68.4601 10.2817 67.0943 9.53826 65.1807C8.97675 63.7361 8.30858 61.565 8.12632 57.5675C7.92901 53.2443 7.88737 51.9476 7.88737 41C7.88737 30.0527 7.92901 28.7561 8.12632 24.4328C8.3089 20.4353 8.97675 18.2642 9.53826 16.8193C10.2817 14.9057 11.1702 13.5399 12.6049 12.1053C14.0399 10.6702 15.4057 9.78202 17.3193 9.03826C18.7639 8.47675 20.935 7.8089 24.9325 7.62632C29.2557 7.42933 30.5524 7.38769 41.5 7.38769ZM41.5 0C30.365 0 28.9687 0.0470859 24.5958 0.246641C20.2316 0.445875 17.2511 1.13903 14.6434 2.1525C11.947 3.20024 9.66062 4.60225 7.38127 6.88159C5.10193 9.16094 3.70024 11.4473 2.6525 14.1434C1.63871 16.7514 0.945875 19.7319 0.746641 24.0958C0.547086 28.4687 0.5 29.865 0.5 41C0.5 52.135 0.547086 53.5313 0.746641 57.9042C0.945875 62.2684 1.63871 65.2489 2.6525 67.8566C3.69992 70.5527 5.10193 72.8394 7.38127 75.1187C9.66062 77.3981 11.947 78.7998 14.6434 79.8475C17.2514 80.8613 20.2316 81.5541 24.5955 81.7534C28.9687 81.9529 30.365 82 41.5 82C52.635 82 54.0313 81.9529 58.4042 81.7534C62.7681 81.5541 65.7486 80.8613 68.3563 79.8475C71.0527 78.8001 73.3391 77.3981 75.6184 75.1187C77.8978 72.8394 79.2998 70.553 80.3475 67.8566C81.361 65.2486 82.0541 62.2684 82.2534 57.9045C82.4529 53.5313 82.5 52.135 82.5 41C82.5 29.865 82.4529 28.4687 82.2534 24.0958C82.0541 19.7319 81.361 16.7514 80.3475 14.1437C79.2998 11.4473 77.8978 9.16094 75.6184 6.88159C73.3391 4.60225 71.0527 3.19992 68.3566 2.1525C65.7486 1.13903 62.7681 0.445875 58.4042 0.246641C54.0313 0.0470859 52.635 0 41.5 0ZM41.5 19.9459C29.872 19.9459 20.4459 29.3727 20.4459 41C20.4459 52.628 29.872 62.0541 41.5 62.0541C53.1277 62.0541 62.5541 52.628 62.5541 41C62.5541 29.3723 53.1277 19.9459 41.5 19.9459ZM41.5 54.6668C33.9522 54.6668 27.8332 48.5478 27.8332 41C27.8332 33.4522 33.9522 27.3332 41.5 27.3332C49.0478 27.3332 55.1668 33.4522 55.1668 41C55.1668 48.5478 49.0478 54.6668 41.5 54.6668ZM68.3057 19.114C68.3057 21.8315 66.1032 24.034 63.3857 24.034C60.6685 24.034 58.4657 21.8315 58.4657 19.114C58.4657 16.3968 60.6685 14.194 63.3857 14.194C66.1032 14.194 68.3057 16.3968 68.3057 19.114Z" fill="#817575"/>
</svg>
