<svg width="85" height="37" viewBox="0 0 85 37" fill="none" xmlns="http://www.w3.org/2000/svg">
<path d="M24.0335 12.7774C24.0484 20.3709 24.0335 19.8851 24.2694 21.1033C24.7561 23.6383 26.1302 26.1429 27.89 27.695L28.2457 28.0138L28.0922 28.1504C26.2351 29.7784 24.9021 32.0705 24.3405 34.6016C24.2132 35.1747 24.1009 35.9906 24.0709 36.5332L24.0484 37H26.1639H28.2832L28.3094 36.685C28.5266 33.9755 29.7696 31.987 31.8664 30.9813C32.6714 30.5981 33.3304 30.4501 34.4874 30.3969C35.4422 30.3514 35.9589 30.2907 36.5841 30.1503C37.2843 29.9947 37.9845 29.7404 38.7184 29.3761C39.8042 28.8334 40.6803 28.1997 41.5453 27.3231C43.2901 25.5547 44.4695 23.1981 44.8664 20.6707L44.93 20.2646H45.7837C46.4427 20.2646 46.6374 20.276 46.6374 20.3102C46.6374 20.3367 46.6636 20.5379 46.6898 20.758C46.8171 21.7105 47.2178 22.8983 47.8169 24.0937C48.4159 25.2852 49.0487 26.1619 50.0072 27.1371C50.3667 27.5052 50.8235 27.9303 51.0182 28.0821C52.7255 29.4065 54.4479 30.1275 56.466 30.359C56.9004 30.4083 58.1659 30.4083 58.6003 30.359C60.6446 30.1275 62.5017 29.342 64.1604 28.0062C65.0029 27.3307 65.9764 26.2378 66.6167 25.2549C68.4738 22.3936 69.1178 18.7998 68.3914 15.3503C67.8934 12.9861 66.7327 10.804 65.0778 9.1267C63.4041 7.4266 61.3897 6.36783 59.0945 5.98834C58.6751 5.91624 58.443 5.90486 57.5706 5.90486C56.4885 5.90106 56.2526 5.92383 55.4177 6.09839C53.8526 6.42855 52.2875 7.18373 50.962 8.25008C50.4491 8.66372 49.498 9.6428 49.0936 10.1703C48.1988 11.3429 47.551 12.5573 47.083 13.9538L46.9407 14.3826H49.1835H51.4226L51.5985 14.0486C52.5084 12.341 53.8601 11.1418 55.4963 10.5915C56.2938 10.3221 56.6196 10.269 57.5144 10.269C58.1921 10.2652 58.3606 10.2765 58.7276 10.3524C60.0306 10.6181 61.1089 11.1949 62.0787 12.1436C63.333 13.3694 64.138 15.0429 64.4076 16.9821C64.4824 17.5247 64.4937 18.7163 64.4263 19.2021C64.2166 20.739 63.7448 21.9951 62.9511 23.1298C62.6141 23.6117 61.7529 24.4883 61.2774 24.8299C60.8431 25.141 60.0006 25.5699 59.5138 25.7254C58.75 25.9683 58.458 26.0101 57.5331 26.0101C56.5896 26.0101 56.2713 25.9607 55.515 25.7065C53.9799 25.1904 52.6095 24.0253 51.752 22.5226C51.4375 21.9647 51.1268 21.0616 51.0406 20.4468L51.0144 20.2646L57.3834 20.257L63.7561 20.2457L60.581 18.1319L57.4021 16.0144H49.1199H40.8339V17.5968C40.8339 18.4697 40.8151 19.369 40.7964 19.6005C40.6504 21.2058 40.0813 22.6364 39.1302 23.7901C38.3028 24.7919 37.1832 25.5167 35.9851 25.8241C34.8805 26.1087 33.6824 26.0518 32.6227 25.6647C30.6233 24.9361 29.032 23.0615 28.4592 20.758C28.227 19.8282 28.2382 20.2988 28.227 12.7394L28.212 5.84414H26.1153H24.0185L24.0335 12.7774Z" fill="white"/>
<path d="M17.9939 4.53881V9.07368L17.5558 8.66763C16.0319 7.26732 14.3208 6.34137 12.6396 5.99983C11.4003 5.75317 9.90259 5.81009 8.54343 6.16681C5.47315 6.96373 2.85967 9.16475 1.34699 12.2272C0.673028 13.5858 0.291115 14.8646 0.0702045 16.4699C-0.0234015 17.1567 -0.0234015 19.1756 0.0702045 19.8473C0.287371 21.407 0.643074 22.5948 1.29457 23.9268C2.45903 26.3176 4.25252 28.1695 6.48035 29.2776C7.48381 29.7785 8.29256 30.0479 9.3372 30.2263C11.5688 30.6134 13.7779 30.2718 15.8222 29.2206C17.8554 28.1733 19.5552 26.4504 20.7197 24.2494C21.2813 23.1868 21.7718 21.7258 21.9815 20.4924C22.1725 19.3654 22.165 19.9763 22.1762 9.62773L22.1912 0.000144958H20.0907H17.9939V4.53881ZM11.7597 10.2463C13.7779 10.474 15.5339 11.5935 16.6909 13.396C17.3012 14.3447 17.6981 15.3807 17.9228 16.6179C18.0351 17.2213 18.0613 18.5608 17.9752 19.2401C17.8142 20.5304 17.3424 21.8548 16.6797 22.8528C16.3502 23.3538 16.0731 23.6839 15.5826 24.1621C13.849 25.8546 11.4003 26.4276 9.08634 25.6876C8.62954 25.5396 7.847 25.1563 7.43887 24.8755C6.56272 24.2797 5.76145 23.4297 5.21105 22.5151C3.71335 20.0181 3.60477 16.8418 4.93398 14.2195C5.77643 12.5612 7.16554 11.2671 8.77931 10.6448C9.29602 10.4474 9.88386 10.307 10.5241 10.2311C10.775 10.2045 11.4415 10.2121 11.7597 10.2463Z" fill="white"/>
<path d="M79.4181 5.90083C77.6508 6.09817 75.9621 6.75468 74.5131 7.80965C74.0114 8.17396 73.6295 8.5155 73.109 9.05816C71.7573 10.4661 70.8101 12.2686 70.4319 14.1699C70.2222 15.2286 70.226 15.0047 70.226 22.8335V30.0552H72.3227H74.4158L74.4307 23.251C74.442 15.6802 74.4232 16.257 74.7003 15.1565C75.3406 12.6178 77.0779 10.9442 79.6165 10.4167C80.4065 10.2498 80.605 10.2384 82.4247 10.2194L84.192 10.2004V8.02217V5.84391L82.0315 5.84771C80.5264 5.8515 79.7326 5.86668 79.4181 5.90083Z" fill="white"/>
</svg>
