<svg width="38" height="34" viewBox="0 0 38 34" fill="none" xmlns="http://www.w3.org/2000/svg">
<path d="M21.801 0.00315094C21.7571 0.00580978 21.6082 0.0137901 21.4686 0.0217667C18.3504 0.198624 15.3039 1.44458 12.7921 3.57083C12.4503 3.85939 12.2256 4.07081 11.8001 4.495C11.1432 5.15322 10.6818 5.69043 10.1432 6.42445C9.04221 7.92439 8.13001 9.7315 7.58083 11.504C7.53562 11.6503 7.49572 11.778 7.49306 11.7859C7.48775 11.7992 8.12203 11.8032 10.6286 11.8032H13.7694L13.8718 11.5931C14.2082 10.9096 14.6643 10.1916 15.1377 9.60252C15.4635 9.19695 15.9927 8.64112 16.3531 8.32863C17.7347 7.12389 19.3477 6.37525 21.083 6.13323C21.563 6.06675 21.7638 6.05345 22.3329 6.05212C22.8728 6.05212 23.0151 6.0601 23.4565 6.11329C24.5084 6.23961 25.5961 6.57604 26.5282 7.06538C27.7144 7.6877 28.7542 8.55335 29.6225 9.64241C30.9948 11.3631 31.8419 13.5385 32.0533 15.8789C32.1171 16.5983 32.1171 17.4426 32.0533 18.1461C31.7116 21.856 29.7675 25.0647 26.8474 26.7388C25.9285 27.2667 24.89 27.6364 23.8355 27.8119C23.0669 27.9409 22.1933 27.9662 21.4088 27.8851C18.9647 27.6324 16.744 26.3878 15.1204 24.3626C14.6218 23.7403 14.2056 23.0834 13.921 22.4677C13.558 21.6805 13.3253 20.884 13.2003 19.9917L13.1923 19.9412L22.1561 19.9386L31.1185 19.9346L26.6306 16.9852L22.1428 14.0372H11.0714H0V16.9892V19.9412H3.52912H7.05957L7.06622 19.9971C7.07021 20.029 7.07686 20.1074 7.08085 20.1739C7.11276 20.646 7.20451 21.1765 7.34812 21.7164C7.7896 23.3759 8.49569 25.0142 9.39193 26.4569C12.0554 30.7453 16.3385 33.4952 21.0165 33.9234C21.829 33.9965 22.7279 34.0018 23.5297 33.9354C27.0482 33.6468 30.3579 32.0777 32.9642 29.4621C35.347 27.0699 36.9866 23.957 37.6568 20.5529C38.0025 18.7897 38.0876 16.9905 37.9095 15.1808C37.456 10.5639 35.2646 6.34599 31.8352 3.48706C31.1145 2.88735 30.2847 2.31689 29.4537 1.85281C29.1345 1.67463 28.572 1.39405 28.2436 1.24911C26.6333 0.537704 25.0549 0.149422 23.2571 0.0217667C23.0669 0.00714111 21.9566 -0.00615692 21.801 0.00315094Z" fill="#2001FF"/>
</svg>
