<svg width="38" height="34" viewBox="0 0 38 34" fill="none" xmlns="http://www.w3.org/2000/svg">
<path d="M21.801 0.00363922C21.7571 0.00629807 21.6082 0.0142784 21.4686 0.0222549C18.3504 0.199112 15.3039 1.44507 12.7921 3.57132C12.4503 3.85987 12.2256 4.0713 11.8001 4.49549C11.1432 5.15371 10.6818 5.69092 10.1432 6.42493C9.04221 7.92488 8.13001 9.73199 7.58083 11.5045C7.53562 11.6508 7.49572 11.7785 7.49306 11.7864C7.48775 11.7997 8.12203 11.8037 10.6286 11.8037H13.7694L13.8718 11.5936C14.2082 10.9101 14.6643 10.1921 15.1377 9.603C15.4635 9.19744 15.9927 8.64161 16.3531 8.32912C17.7347 7.12438 19.3477 6.37573 21.083 6.13372C21.563 6.06724 21.7638 6.05394 22.3329 6.05261C22.8728 6.05261 23.0151 6.06059 23.4565 6.11378C24.5084 6.2401 25.5961 6.57652 26.5282 7.06587C27.7144 7.68818 28.7542 8.55384 29.6225 9.6429C30.9948 11.3636 31.8419 13.539 32.0533 15.8794C32.1171 16.5987 32.1171 17.4431 32.0533 18.1466C31.7116 21.8565 29.7675 25.0652 26.8474 26.7393C25.9285 27.2672 24.89 27.6369 23.8355 27.8124C23.0669 27.9414 22.1933 27.9667 21.4088 27.8855C18.9647 27.6329 16.744 26.3883 15.1204 24.3631C14.6218 23.7408 14.2056 23.0839 13.921 22.4682C13.558 21.681 13.3253 20.8845 13.2003 19.9922L13.1923 19.9417L22.1561 19.939L31.1185 19.9351L26.6306 16.9857L22.1428 14.0377H11.0714H0V16.9897V19.9417H3.52912H7.05957L7.06622 19.9976C7.07021 20.0295 7.07686 20.1079 7.08085 20.1744C7.11276 20.6465 7.20451 21.177 7.34812 21.7169C7.7896 23.3764 8.49569 25.0146 9.39193 26.4574C12.0554 30.7458 16.3385 33.4957 21.0165 33.9239C21.829 33.997 22.7279 34.0023 23.5297 33.9358C27.0482 33.6473 30.3579 32.0782 32.9642 29.4626C35.347 27.0704 36.9866 23.9575 37.6568 20.5534C38.0025 18.7902 38.0876 16.991 37.9095 15.1812C37.456 10.5644 35.2646 6.34648 31.8352 3.48755C31.1145 2.88784 30.2847 2.31738 29.4537 1.8533C29.1345 1.67512 28.572 1.39454 28.2436 1.2496C26.6333 0.538193 25.0549 0.14991 23.2571 0.0222549C23.0669 0.00762939 21.9566 -0.00566864 21.801 0.00363922Z" fill="white"/>
</svg>
