<svg width="47" height="49" viewBox="0 0 47 49" fill="none" xmlns="http://www.w3.org/2000/svg">
<g clip-path="url(#clip0_6_124)">
<path d="M39.5409 27.3371C39.2225 27.6022 38.8389 27.7758 38.4305 27.8396C38.0221 27.9033 37.604 27.8549 37.2204 27.6993C36.3153 27.2838 35.75 26.1731 35.6127 24.6043L35.192 19.7961C34.9901 17.4879 33.9395 15.925 32.3834 15.6119C29.7534 15.08 28.1158 18.4135 27.4811 19.6689L23.5939 27.4641L22.8039 18.4346C22.5714 16.3566 21.7905 15.1682 20.4871 14.9069C19.6257 14.732 18.375 14.9438 17.314 16.936L8.61116 34.2284C7.03463 31.7448 6.08201 28.912 5.83582 25.9754C4.9708 16.0881 12.1045 7.36054 21.7612 6.51569C31.4178 5.67084 39.9867 13.0246 40.8517 22.9119L40.8561 22.9627C40.8561 22.9627 40.8591 22.9966 40.8606 23.0135C41.1231 24.9183 40.6407 26.4959 39.5465 27.3366L39.5409 27.3371ZM44.7652 22.5752L44.7569 22.4793C43.6243 10.4374 33.1853 1.50145 21.4126 2.53143C9.63986 3.56141 0.860089 14.2357 1.91718 26.3182C2.97427 38.4008 13.4411 47.3969 25.2474 46.364C30.6623 45.89 35.6881 43.3419 39.2909 39.244C39.6408 38.8482 39.8216 38.3291 39.7943 37.7993C39.7669 37.2695 39.5336 36.7716 39.1448 36.4135C38.9585 36.239 38.7398 36.1034 38.5014 36.0144C38.263 35.9254 38.0096 35.8847 37.7557 35.8948C37.5017 35.9048 37.2524 35.9654 37.0219 36.073C36.7915 36.1806 36.5844 36.3331 36.4128 36.5217C34.8619 38.2883 32.9724 39.7202 30.8577 40.7316C28.743 41.7429 26.4468 42.3128 24.1069 42.4071C21.767 42.5013 19.4317 42.118 17.2412 41.28C15.0506 40.442 13.05 39.1668 11.3595 37.5307L19.1908 21.9466L19.7877 28.7695C20.0746 32.0484 21.4269 32.9991 22.5121 33.217C23.5973 33.4348 25.1964 33.0788 26.6497 30.1538L30.9686 21.4906C31.1021 21.2116 31.2335 20.9726 31.3506 20.7634L31.7164 24.9451C31.9845 28.0095 33.4192 30.352 35.6633 31.3726C36.682 31.8167 37.8001 31.9765 38.9003 31.8353C40.0005 31.694 41.0424 31.2568 41.9165 30.5696C44.1329 28.8233 45.171 25.9233 44.7429 22.5772L44.7652 22.5752Z" fill="white"/>
</g>
<defs>
<clipPath id="clip0_6_124">
<rect width="43" height="44" fill="white" transform="translate(0 4.40479) rotate(-5)"/>
</clipPath>
</defs>
</svg>
