<svg width="108" height="82" viewBox="0 0 108 82" fill="none" xmlns="http://www.w3.org/2000/svg">
<path d="M91.4861 6.83896C84.4034 3.60211 76.9104 1.30219 69.2052 0C68.2454 1.6948 67.1241 3.97432 66.3508 5.7878C58.0432 4.56769 49.812 4.56769 41.6572 5.7878C40.8843 3.97473 39.7376 1.6948 38.769 0C31.0563 1.30279 23.5569 3.60857 16.4708 6.85586C2.37006 27.6686 -1.45254 47.9638 0.458549 67.9718C9.8111 74.7935 18.8747 78.9376 27.7855 81.6493C30.0001 78.6747 31.9577 75.5255 33.6382 72.2342C30.4388 71.0445 27.3545 69.5783 24.4219 67.8531C25.1936 67.2944 25.9472 66.7122 26.6815 66.1072C44.4517 74.2257 63.76 74.2257 81.3185 66.1072C82.0559 66.7082 82.8092 67.2904 83.5776 67.8531C80.6403 69.5828 77.5503 71.0519 74.3445 72.2428C76.0345 75.5475 77.9886 78.6998 80.1971 81.6576C89.1164 78.9462 98.1884 74.8021 107.541 67.9718C109.784 44.7778 103.71 24.6688 91.4861 6.83896ZM36.0593 55.6673C30.7247 55.6673 26.3499 50.8029 26.3499 44.8795C26.3499 38.9562 30.6315 34.0836 36.0593 34.0836C41.4876 34.0836 45.862 38.9475 45.7688 44.8795C45.7772 50.8029 41.4876 55.6673 36.0593 55.6673ZM71.9402 55.6673C66.6056 55.6673 62.2312 50.8029 62.2312 44.8795C62.2312 38.9562 66.5124 34.0836 71.9402 34.0836C77.3685 34.0836 81.7429 38.9475 81.6496 44.8795C81.6496 50.8029 77.3685 55.6673 71.9402 55.6673Z" fill="#5865F2"/>
</svg>
