<svg width="155" height="54" viewBox="0 0 155 54" fill="none" xmlns="http://www.w3.org/2000/svg">
<g clip-path="url(#clip0_6_126)">
<path d="M57.4901 18.2683L49.1138 19.0012C48.8365 19.0252 48.5768 19.1465 48.3815 19.3431C48.1863 19.5398 48.0683 19.7988 48.0488 20.0736L46.5201 41.6194C46.5132 41.7194 46.5282 41.8196 46.5642 41.9132C46.6001 42.0068 46.6562 42.0915 46.7285 42.1615C46.8007 42.2316 46.8875 42.2852 46.9829 42.3188C47.0782 42.3525 47.1798 42.3652 47.2806 42.3562L51.2795 42.0064C51.557 41.9822 51.8169 41.8608 52.0121 41.6639C52.2074 41.467 52.3253 41.2077 52.3445 40.9328L52.7567 35.1215C52.7759 34.8468 52.8937 34.5877 53.0887 34.3908C53.2837 34.194 53.5432 34.0725 53.8205 34.048L56.4721 33.816C61.9897 33.3333 64.9431 30.4132 65.3167 25.106C65.4911 22.7831 64.9749 21.0151 63.7807 19.8498C62.4691 18.5702 60.2936 18.0231 57.4901 18.2683ZM59.1354 25.9447C58.9375 28.9582 56.641 29.1592 54.4205 29.3534L53.1565 29.464L53.5574 23.8332C53.5692 23.6685 53.64 23.5132 53.757 23.3953C53.8741 23.2774 54.0297 23.2046 54.196 23.1901L54.7753 23.1394C56.2879 23.0071 57.7148 22.8822 58.5267 23.6708C59.011 24.1412 59.2118 24.8855 59.1354 25.9447ZM83.1988 23.7429L79.1877 24.0939C79.0214 24.1084 78.8658 24.1812 78.7487 24.2991C78.6316 24.417 78.5609 24.5723 78.5491 24.737L78.4686 25.8625L78.153 25.4847C77.1755 24.3139 75.2027 24.0665 73.27 24.2355C68.8375 24.6233 65.3423 28.2758 65.0126 32.9993C64.8325 35.3568 65.572 37.5314 67.0401 38.9646C68.3871 40.2826 70.1881 40.7233 72.269 40.5412C75.8404 40.2288 77.6221 37.7836 77.6221 37.7836L77.5398 38.9019C77.5324 39.0018 77.5471 39.1021 77.5828 39.1959C77.6184 39.2896 77.6742 39.3746 77.7463 39.4449C77.8184 39.5152 77.905 39.5691 78.0003 39.603C78.0955 39.637 78.1971 39.65 78.298 39.6414L81.9111 39.3252C82.1886 39.3011 82.4485 39.1796 82.6437 38.9828C82.839 38.7859 82.9569 38.5266 82.9761 38.2516L83.9557 24.4801C83.963 24.3804 83.9484 24.2802 83.9128 24.1867C83.8772 24.0932 83.8215 24.0084 83.7496 23.9383C83.6776 23.8682 83.5911 23.8145 83.496 23.7807C83.4009 23.747 83.2995 23.7341 83.1988 23.7429ZM78.2834 31.9554C78.0947 34.2564 76.4091 35.9374 74.0894 36.1403C72.9246 36.2422 71.9614 35.9541 71.3025 35.306C70.6488 34.6624 70.3369 33.6921 70.429 32.573C70.5937 30.2937 72.3056 28.5603 74.5898 28.3605C75.7288 28.2608 76.6875 28.5542 77.3593 29.2073C78.0329 29.8675 78.3625 30.8423 78.2834 31.9554ZM104.561 21.874L100.531 22.2266C100.341 22.2435 100.157 22.3061 99.9972 22.4088C99.837 22.5116 99.7044 22.6514 99.611 22.8162L94.7605 31.404L91.7229 23.825C91.6298 23.5939 91.4639 23.3987 91.2498 23.2683C91.0357 23.138 90.7847 23.0794 90.534 23.1012L86.5731 23.4477C86.4619 23.4572 86.3545 23.4927 86.2599 23.5515C86.1653 23.6103 86.0862 23.6905 86.0292 23.7855C85.9722 23.8806 85.939 23.9877 85.9322 24.0979C85.9255 24.2082 85.9454 24.3183 85.9904 24.4193L91.558 36.9209L87.8939 43.1155C87.8288 43.2253 87.7954 43.3507 87.7975 43.478C87.7996 43.6052 87.837 43.7294 87.9057 43.8368C87.9743 43.9443 88.0716 44.031 88.1868 44.0873C88.302 44.1436 88.4307 44.1675 88.5589 44.1562L92.5847 43.804C92.7727 43.7878 92.954 43.7267 93.1131 43.6261C93.2721 43.5254 93.4042 43.3881 93.498 43.2259L105.229 22.9083C105.293 22.7983 105.325 22.6733 105.322 22.5468C105.319 22.4203 105.281 22.297 105.212 22.1905C105.143 22.0839 105.046 21.9981 104.932 21.9423C104.817 21.8865 104.689 21.8629 104.561 21.874Z" fill="white"/>
<path d="M12.1662 49.5894L12.4546 45.5081L11.0249 45.6003L4.21144 46.1964L6.34783 16.0799C6.35399 15.9879 6.39334 15.9011 6.45872 15.8353C6.5241 15.7695 6.61115 15.7291 6.704 15.7215L18.1924 14.7164C22.0064 14.3827 24.7071 14.9376 26.2169 16.3671C26.9247 17.0378 27.4015 17.7616 27.6731 18.5803C27.958 19.4394 28.0534 20.4872 27.9619 21.7833L27.9554 21.8779L28.0271 22.697L28.7029 23.0017C29.2163 23.2052 29.6875 23.5 30.0934 23.8715C30.6989 24.4449 31.1244 25.2037 31.357 26.1272C31.5968 27.0769 31.6457 28.2276 31.5045 29.5476C31.3411 31.0662 30.9797 32.4079 30.431 33.5279C29.9481 34.5305 29.2589 35.4225 28.4077 36.1468C27.6077 36.82 26.6345 37.363 25.5148 37.754C24.4302 38.137 23.1776 38.3919 21.7899 38.5133L20.8958 38.5915C20.2565 38.6475 19.6555 38.9296 19.2037 39.3806C18.7531 39.8359 18.48 40.4343 18.4333 41.0694L18.3976 41.4376L17.8866 48.6311L17.858 48.8961C17.8517 48.9797 17.832 49.0229 17.8002 49.0538C17.7693 49.0836 17.7292 49.1021 17.6863 49.1065L12.1662 49.5894Z" fill="white"/>
<path d="M29.2178 21.8627C29.2025 22.0826 29.1827 22.3077 29.1586 22.5394C28.3168 30.3674 23.3661 33.4793 16.7462 34.0585L13.3756 34.3534C12.566 34.4242 11.9347 35.0655 11.8777 35.8666L11.0992 46.8452L10.8791 49.9572C10.8703 50.0807 10.8886 50.2045 10.9328 50.3201C10.977 50.4358 11.046 50.5406 11.1351 50.6272C11.2242 50.7139 11.3313 50.7804 11.4489 50.8221C11.5666 50.8639 11.692 50.8799 11.8166 50.8691L17.7947 50.346C18.5027 50.2841 19.0595 49.7226 19.1105 49.0222L19.143 48.7165L19.6504 41.5515L19.6887 41.1574C19.7383 40.4547 20.2964 39.893 21.0043 39.8311L21.8984 39.7529C27.6903 39.2461 32.0209 36.523 32.7572 29.6749C33.0647 26.8141 32.5727 24.4909 30.9633 22.9676C30.4544 22.4973 29.8629 22.1229 29.2178 21.8627Z" fill="white"/>
<path d="M27.5783 21.3761C27.0824 21.28 26.5808 21.215 26.0766 21.1815C25.0804 21.118 24.0805 21.1332 23.0865 21.227L14.0819 22.0148C13.7392 22.0445 13.4183 22.1945 13.1773 22.4378C12.9362 22.681 12.7909 23.0014 12.7676 23.341L11.9021 35.5116L11.8777 35.8666C11.9039 35.4792 12.0694 35.1138 12.3441 34.8362C12.6189 34.5587 12.9848 34.3874 13.3756 34.3534L16.7462 34.0585C23.3661 33.4793 28.3167 30.3662 29.1586 22.5394C29.184 22.3076 29.2025 22.0826 29.2178 21.8627C28.7999 21.6902 28.368 21.5528 27.9268 21.4518C27.811 21.4247 27.6948 21.3995 27.5783 21.3761Z" fill="#002AFF"/>
<path d="M12.7675 23.341C12.7903 23.0013 12.9356 22.6808 13.1768 22.4377C13.418 22.1945 13.7391 22.0449 14.0819 22.016L23.0865 21.2282C24.1533 21.1349 25.1551 21.1168 26.0766 21.1827C26.6999 21.2245 27.3189 21.3145 27.9279 21.4517C28.3878 21.5592 28.8181 21.6962 29.219 21.8626C29.4209 18.9793 28.7971 17.0828 27.0895 15.4654C25.2071 13.6851 22.0423 13.1293 18.085 13.4755L6.59659 14.4806C5.78823 14.5513 5.14957 15.1933 5.09386 15.9955L2.93397 46.4217C2.92387 46.5629 2.94482 46.7046 2.99536 46.837C3.0459 46.9694 3.12485 47.0893 3.22677 47.1885C3.32868 47.2878 3.45115 47.3639 3.58575 47.4118C3.72035 47.4596 3.86388 47.4781 4.00647 47.4658L11.0992 46.8452L11.9021 35.5116L12.7675 23.341Z" fill="white"/>
<path d="M117.236 13.0412L108.858 13.7742C108.581 13.7985 108.322 13.9199 108.127 14.1165C107.932 14.3131 107.814 14.5719 107.795 14.8465L106.266 36.3923C106.259 36.4921 106.274 36.5922 106.309 36.6858C106.345 36.7793 106.401 36.864 106.473 36.934C106.545 37.0041 106.632 37.0578 106.727 37.0916C106.822 37.1253 106.923 37.1382 107.024 37.1294L111.323 36.7533C111.517 36.736 111.698 36.6509 111.835 36.5132C111.971 36.3754 112.053 36.1942 112.067 36.002L112.501 29.8946C112.521 29.6198 112.638 29.3607 112.833 29.1639C113.028 28.967 113.288 28.8455 113.565 28.8211L116.216 28.5892C121.734 28.1063 124.687 25.1864 125.061 19.879C125.237 17.556 124.718 15.7882 123.524 14.6229C122.214 13.3432 120.039 12.796 117.236 13.0412ZM118.881 20.7176C118.685 23.731 116.388 23.932 114.166 24.1263L112.904 24.2368L113.306 18.6059C113.317 18.4412 113.387 18.2859 113.504 18.1679C113.621 18.05 113.777 17.9772 113.943 17.9629L114.522 17.9122C116.034 17.78 117.462 17.655 118.274 18.4436C118.758 18.914 118.958 19.6584 118.881 20.7176ZM142.944 18.516L138.935 18.8667C138.769 18.8808 138.613 18.9534 138.496 19.0714C138.379 19.1894 138.308 19.3449 138.297 19.5097L138.217 20.6352L137.9 20.2575C136.923 19.0867 134.951 18.8392 133.018 19.0082C128.586 19.396 125.092 23.0484 124.762 27.7719C124.583 30.1293 125.32 32.3041 126.788 33.7373C128.138 35.0551 129.936 35.496 132.017 35.3139C135.589 35.0015 137.37 32.5563 137.37 32.5563L137.288 33.6745C137.281 33.7747 137.296 33.8753 137.331 33.9692C137.367 34.0631 137.423 34.1481 137.496 34.2184C137.568 34.2887 137.655 34.3426 137.75 34.3764C137.846 34.4101 137.948 34.4229 138.049 34.4138L141.661 34.0978C141.938 34.0734 142.197 33.9518 142.393 33.755C142.588 33.5582 142.705 33.2991 142.724 33.0243L143.705 19.2527C143.712 19.1527 143.697 19.0525 143.661 18.9589C143.625 18.8653 143.568 18.7806 143.496 18.7106C143.424 18.6406 143.337 18.587 143.241 18.5534C143.146 18.5198 143.044 18.507 142.944 18.516ZM138.028 26.7284C137.842 29.0292 136.154 30.7104 133.834 30.9133C132.672 31.015 131.706 30.7271 131.047 30.079C130.394 29.4354 130.084 28.4649 130.174 27.346C130.341 25.0665 132.05 23.3334 134.334 23.1335C135.474 23.0339 136.432 23.3273 137.104 23.9803C137.78 24.6403 138.11 25.6151 138.028 26.7284ZM147.053 11.0199L145.508 32.9591C145.501 33.0589 145.516 33.159 145.551 33.2525C145.587 33.3461 145.643 33.4308 145.715 33.5008C145.787 33.5709 145.874 33.6246 145.969 33.6583C146.064 33.6921 146.165 33.705 146.266 33.6961L149.722 33.3938C150.297 33.3435 150.748 32.8889 150.787 32.3202L152.318 10.7753C152.326 10.6754 152.311 10.5753 152.275 10.4817C152.239 10.3881 152.183 10.3033 152.111 10.2332C152.039 10.163 151.953 10.1092 151.858 10.0753C151.763 10.0414 151.661 10.0284 151.56 10.037L147.69 10.3756C147.524 10.3908 147.369 10.4639 147.252 10.5819C147.135 10.7 147.064 10.8553 147.053 11.0199Z" fill="white"/>
</g>
<defs>
<clipPath id="clip0_6_126">
<rect width="152" height="40" fill="white" transform="translate(0 13.4048) rotate(-5)"/>
</clipPath>
</defs>
</svg>
