<svg width="102" height="82" viewBox="0 0 102 82" fill="none" xmlns="http://www.w3.org/2000/svg">
<path d="M102 9.98517C98.1805 11.6514 94.1292 12.745 89.9807 13.2299C94.3018 10.6796 97.6196 6.64122 99.1819 1.8295C95.0742 4.22981 90.58 5.92098 85.8936 6.82993C82.0761 2.82527 76.6379 0.322508 70.6187 0.322508C59.0616 0.322508 49.6915 9.54888 49.6915 20.9284C49.6915 22.5437 49.8768 24.1162 50.2334 25.6248C32.8416 24.7652 17.4221 16.5616 7.10055 4.09451C5.29962 7.13792 4.26766 10.678 4.26766 14.454C4.26766 21.6033 7.96238 27.9102 13.5772 31.6057C10.254 31.5032 7.00393 30.6194 4.09833 29.028C4.09713 29.1143 4.09713 29.2006 4.09713 29.2873C4.09713 39.2713 11.3104 47.6 20.8833 49.4931C17.8017 50.3183 14.5694 50.4391 11.4332 49.8462C14.0959 58.0328 21.8244 63.9902 30.9813 64.157C23.8194 69.6835 14.796 72.978 4.99202 72.978C3.30265 72.978 1.63718 72.8803 0 72.69C9.26088 78.5368 20.2605 81.9482 32.0782 81.9482C70.5701 81.9482 91.6183 50.5485 91.6183 23.3182C91.6183 22.4244 91.5984 21.5358 91.5578 20.6522C95.6546 17.7359 99.1907 14.1237 102 9.98517Z" fill="#817575"/>
</svg>
