<svg width="45" height="35" viewBox="0 0 45 35" fill="none" xmlns="http://www.w3.org/2000/svg">
<path d="M18.2109 1.62745C20.9355 0.396986 23.0098 0.572767 25.0312 2.13722C27.7559 4.22902 28.248 8.13136 26.1562 10.856C24.0645 13.5806 20.2676 13.9321 17.4375 11.981C13.8164 9.48488 12.5156 5.16066 12.8672 2.17238C14.625 2.89308 16.4883 2.40089 18.2109 1.62745ZM40.5 32.2134V28.7505H32.7656V30.1568H29.0391C26.5605 30.1568 24.5391 28.1353 24.5391 25.6568C24.5391 23.1782 26.5605 21.1568 29.0391 21.1568H30.2695L32.8359 24.7251L31.9395 25.3755L32.7832 26.5357L37.9863 22.7915L37.1426 21.6314L36.2461 22.2642L30.5332 14.3013L29.7949 14.8286L27.9844 12.315L26.0332 13.7212L27.8437 16.2349L27.123 16.7622L28.793 19.0825C25.875 19.2056 23.4492 21.2095 22.7109 23.9165H18.4219C18.2285 20.7876 17.9121 17.7466 17.3496 15.9185C16.6113 13.4751 14.9941 11.0845 12.1816 10.856C9.03516 10.6099 6.38086 13.0181 4.81641 16.147C1.40625 22.9321 0.509766 30.8599 0.351562 34.9907H18.6328C18.6328 34.9907 18.6504 33.2857 18.6328 30.8423H13.8516C11.7598 30.8423 10.0371 29.1372 10.0371 27.0278V21.1392C10.0371 20.7525 10.3535 20.4536 10.7227 20.4536C11.0918 20.4536 11.4082 20.77 11.4082 21.1392V27.0278C11.4082 28.3638 12.498 29.4536 13.834 29.4536H23.625C24.7148 30.9829 26.4375 32.0376 28.4063 32.231H23.5371V34.9907H44.6484V32.231H40.5V32.2134Z" fill="white"/>
</svg>
