<svg width="43" height="44" viewBox="0 0 43 44" fill="none" xmlns="http://www.w3.org/2000/svg">
<path d="M30.95 23.8547V16.6547L32.18 16.2347L36.545 21.9047L30.95 23.8547ZM25.475 7.72973C25.475 3.85973 22.34 0.724731 18.47 0.724731C14.6 0.724731 11.465 3.85973 11.465 7.72973C11.465 11.5997 14.6 14.7347 18.47 14.7347C22.34 14.7497 25.475 11.5997 25.475 7.72973ZM29.555 19.7297C29.195 18.2447 27.695 17.3297 26.195 17.7047L20.93 18.9947C20.93 18.9947 13.88 14.7347 13.76 14.6747C11.225 13.5197 8.18 14.5097 6.815 16.9847L1.67 26.3447C0.634998 28.2347 0.844999 30.4697 2.03 32.1047C2.06 32.1497 6.59 37.3397 6.59 37.3397H3.125C1.415 37.3397 0.0649986 38.7947 0.214999 40.5347C0.349999 42.0647 1.67 43.2047 3.2 43.2047H13.175C14.03 43.2047 15.35 42.8147 15.98 41.4047C16.58 40.0847 16.07 38.7947 15.305 37.9547L10.58 32.5397L16.085 22.5347L19.055 24.3347C19.61 24.6647 20.495 24.8147 21.155 24.6497C22.76 24.2747 27.53 23.0897 27.53 23.0897C29.015 22.7297 29.915 21.2297 29.555 19.7297ZM39.275 32.7047L38.135 29.2547H31.1L29.96 32.7047H39.275ZM39.875 34.5047H29.36L28.22 37.9547H41.03L39.875 34.5047ZM41.615 39.7547H27.605L26.465 43.2047H42.77L41.615 39.7547Z" fill="white"/>
</svg>
